# xmcd
#
# Track frame offsets:
#	150
#	27298
#	42614
#	65601
#	85079
#	100004
#	111249
#	124011
#	141678
#	155253
#	168403
#
# Disc length: 2562 seconds
#
# Revision: 2
# Processed by: cddbd v1.5.2PL0 Copyright (c) Steve Scherf et al.
# Submitted via: EasyCDDAExtractor 10.0.3.1
#
DISCID=960a000b
DTITLE=Lisa Ekdahl - When Did You Leave Heaven
DYEAR=1995
DGENRE=Blues
TTITLE0=When Did You Leave Heaven
TTITLE1=But Not For Me
TTITLE2=Cry Me A River
TTITLE3=Love For Sale
TTITLE4=Lush Life
TTITLE5=You're Gonna See A Lot Of Me
TTITLE6=It Was Just One Of Those Things
TTITLE7=The Boy Next Door
TTITLE8=I'm A Fool To Want You
TTITLE9=My Heart Belongs To Daddy
TTITLE10=Blame It On My Youth
EXTD=RCA Victor\n74321 43175 2\n
EXTT0=
EXTT1=
EXTT2=
EXTT3=
EXTT4=
EXTT5=
EXTT6=
EXTT7=
EXTT8=
EXTT9=
EXTT10=
PLAYORDER=
